# Blender 3.6.5
# www.blender.org
mtllib nano_ship.mtl
o Cube
v 3.076323 -3.674875 0.000000
v 0.506694 -5.395447 1.000000
v 0.506694 -5.395447 -1.000000
v 0.000000 -1.608423 -1.000000
v 0.000000 -5.395447 1.000000
v 0.000000 -5.395447 -1.000000
v 0.000000 1.000000 1.000000
v 3.680078 -7.349749 0.448248
v 3.680078 -7.349749 -0.448248
v 1.776467 0.000000 -0.000683
v 1.776467 0.000000 0.000683
v 0.000000 3.012749 0.000000
v 0.506694 -4.692126 1.000000
v 0.000000 -4.692126 1.000000
v 0.000000 -4.692126 -1.000000
v 0.896125 -4.464260 0.705524
v 0.896125 -4.136685 -0.705524
v 3.135022 -6.011702 0.316250
v 3.135022 -6.011702 -0.316250
v -3.076323 -3.674875 0.000000
v -0.506694 -5.395447 1.000000
v -0.506694 -5.395447 -1.000000
v -3.680078 -7.349749 0.448248
v -3.680078 -7.349749 -0.448248
v -1.776467 0.000000 -0.000683
v -1.776467 0.000000 0.000683
v -0.506694 -4.692126 1.000000
v -0.896125 -4.464260 0.705524
v -0.896125 -4.136685 -0.705524
v -3.135022 -6.011702 0.316250
v -3.135022 -6.011702 -0.316250
vn -0.0000 -0.0000 -1.0000
vn -0.9428 -0.3335 -0.0000
vn -0.0000 -1.0000 -0.0000
vn 0.3465 0.0275 0.9376
vn 0.2636 0.1593 -0.9514
vn 0.9868 0.1621 -0.0000
vn 0.2636 0.1593 0.9514
vn -0.2792 -0.1360 0.9506
vn -0.8614 -0.5079 -0.0000
vn -1.0000 -0.0000 -0.0000
vn 0.3886 0.1376 -0.9111
vn 0.6025 0.3551 0.7148
vn 0.4152 -0.0000 0.9097
vn -0.5686 -0.8226 -0.0000
vn 0.9226 -0.3858 -0.0000
vn -0.2921 -0.2110 -0.9328
vn -0.9261 -0.3773 -0.0000
vn -0.3360 0.0450 -0.9408
vn 0.9428 -0.3335 -0.0000
vn -0.3465 0.0275 0.9376
vn -0.2636 0.1593 -0.9514
vn -0.9868 0.1621 -0.0000
vn -0.2636 0.1593 0.9514
vn 0.2921 -0.2110 0.9328
vn 0.8614 -0.5079 -0.0000
vn -0.3886 0.1376 -0.9111
vn -0.5638 0.1996 0.8014
vn -0.5244 0.8515 -0.0000
vn 0.6133 -0.7694 -0.1786
vn -0.9226 -0.3858 -0.0000
vn 0.2921 -0.2110 -0.9328
vn 0.9261 -0.3773 -0.0000
vn 0.3360 0.0450 -0.9408
vn -0.0000 -0.0000 1.0000
vn -0.2921 -0.2110 0.9328
vn 0.3379 0.1991 -0.9199
vn 0.5638 0.1996 0.8014
vn 0.5244 0.8515 -0.0000
vn -0.6133 -0.7694 -0.1786
vn 0.9575 -0.2810 -0.0652
vn -0.2866 -0.1778 -0.9414
vn 0.2792 -0.1360 0.9506
vn -0.3379 0.1991 -0.9199
vn -0.6025 0.3551 0.7148
vn -0.4152 -0.0000 0.9097
vn 0.5686 -0.8226 -0.0000
vn -0.9575 -0.2810 -0.0652
vn 0.2866 -0.1778 -0.9414
vt 0.250000 0.500000
vt 0.375000 0.750000
vt 0.250000 0.750000
vt 0.000000 0.000000
vt 0.625000 0.750000
vt 0.375000 0.875000
vt 0.750000 0.500000
vt 0.625000 0.500000
vt 0.625000 0.375000
vt 0.375000 0.500000
vt 0.625000 0.875000
vt 0.750000 0.750000
s 0
usemtl Material
f 4/1/1 3/2/1 6/3/1
f 1/4/2 11/4/2 10/4/2
f 2/5/3 6/6/3 3/2/3
f 7/7/4 2/5/4 1/8/4
f 3/4/5 1/4/5 9/4/5
f 8/5/6 9/2/6 1/5/6
f 1/4/7 2/4/7 8/4/7
f 3/4/8 19/4/8 17/4/8
f 12/9/9 10/8/9 11/10/9
f 4/4/10 7/4/10 12/4/10
f 4/1/11 11/10/11 1/10/11
f 7/7/12 10/8/12 12/7/12
f 5/11/10 15/6/10 6/6/10
f 5/11/1 13/5/1 2/5/1
f 2/4/13 9/2/13 13/4/13
f 16/5/14 19/2/14 18/5/14
f 3/2/15 16/5/15 2/5/15
f 2/4/16 18/4/16 8/4/16
f 8/5/17 19/2/17 9/2/17
f 4/1/18 22/2/18 20/10/18
f 20/4/19 25/4/19 26/4/19
f 6/6/3 21/5/3 22/2/3
f 21/5/20 7/7/20 20/8/20
f 22/4/21 24/4/21 20/4/21
f 23/5/22 20/5/22 24/2/22
f 20/4/23 23/4/23 21/4/23
f 22/4/24 31/4/24 24/4/24
f 12/9/25 26/10/25 25/8/25
f 26/10/26 4/1/26 20/10/26
f 7/7/27 25/8/27 20/8/27
f 27/5/1 5/11/1 21/5/1
f 21/4/28 24/2/28 23/5/28
f 28/5/29 31/2/29 29/2/29
f 28/5/30 22/2/30 21/5/30
f 30/4/31 21/4/31 23/4/31
f 31/2/32 23/5/32 24/2/32
f 4/1/33 1/10/33 3/2/33
f 2/5/3 5/11/3 6/6/3
f 7/7/34 5/12/34 2/5/34
f 3/4/35 9/4/35 19/4/35
f 4/1/36 12/1/36 11/10/36
f 7/7/37 1/8/37 10/8/37
f 5/11/10 14/11/10 15/6/10
f 5/11/1 14/11/1 13/5/1
f 2/4/38 8/5/38 9/2/38
f 16/5/39 17/2/39 19/2/39
f 3/2/40 17/2/40 16/5/40
f 2/4/41 16/4/41 18/4/41
f 8/5/17 18/5/17 19/2/17
f 4/1/1 6/3/1 22/2/1
f 6/6/3 5/11/3 21/5/3
f 21/5/34 5/12/34 7/7/34
f 22/4/42 29/4/42 31/4/42
f 26/10/43 12/1/43 4/1/43
f 7/7/44 12/7/44 25/8/44
f 27/5/1 14/11/1 5/11/1
f 21/4/45 27/4/45 24/2/45
f 28/5/46 30/5/46 31/2/46
f 28/5/47 29/2/47 22/2/47
f 30/4/48 28/4/48 21/4/48
f 31/2/32 30/5/32 23/5/32
