# Blender 3.6.5
# www.blender.org
mtllib test.mtl
o Cube
v -1.958753 -1.937786 0.503262
v -1.958753 0.062214 0.503262
v -1.997244 -1.937786 -0.478743
v -1.997244 0.062214 -0.478743
v 0.014504 -1.937786 -0.987741
v 0.014504 0.062214 -0.987741
v 0.014504 -1.937786 1.012259
v 0.014504 0.062214 1.012259
v -3.998806 -1.937786 -0.103816
v -3.960315 -1.937786 0.285244
v -3.960315 0.062214 0.285244
v -3.998806 0.062214 -0.103816
v -1.958753 1.023472 0.331295
v -1.997244 1.023472 -0.287427
v 0.014504 1.023472 0.651994
v 0.014504 1.023472 -0.608126
v -3.479170 1.023472 0.193931
v -3.479170 1.023472 -0.051200
v -2.998025 0.062214 -0.291279
v -2.959534 0.062214 0.394253
v -2.959534 -1.937786 0.394253
v -2.998025 -1.937786 -0.291279
v -3.479170 1.023472 -0.039736
v -3.479170 1.023472 0.133035
v -3.778646 -2.980010 -0.103816
v -3.756463 -2.980010 0.285244
v -3.179694 -2.980010 0.394253
v -3.201878 -2.980010 -0.291279
v -3.778646 -2.804549 -0.103816
v -3.756463 -2.804549 0.285244
v -3.179694 -2.804549 0.394253
v -3.201878 -2.804549 -0.291279
v -1.958753 2.320712 0.331295
v -1.997244 2.320712 -0.287427
v 0.014504 2.320712 0.651994
v 0.014504 2.320712 -0.608126
v -2.959534 2.320712 0.133035
v -2.998025 2.320712 -0.039736
v -1.666720 4.124393 0.217694
v -1.669106 4.124393 -0.167609
v 0.014504 4.124393 0.417406
v 0.014504 4.124393 -0.367321
v -1.728746 4.124393 0.094229
v -1.731132 4.124393 -0.013362
v 0.014504 5.376273 0.417406
v -1.666720 6.029087 0.217694
v -1.669106 6.029087 -0.167609
v 0.014504 5.376273 -0.367321
v 0.014504 6.681899 0.417406
v -1.666720 6.029087 0.217694
v -1.669105 6.029087 -0.167609
v 0.014504 6.681899 -0.367321
v -1.420521 -1.913034 0.335355
v -1.629192 -1.593985 -0.351631
v -1.000000 -0.615750 0.424050
v -1.629192 -2.643908 -0.351631
v -1.000000 -0.615750 -0.424050
v -1.629192 -1.564518 0.351630
v -1.629192 -2.643908 0.351630
v 0.018529 -2.643908 -0.506837
v 0.018529 -1.593985 -0.506837
v 0.018529 -2.643908 0.506837
v 0.018529 -1.564518 0.506837
v 1.987762 -1.937786 0.503262
v 1.987762 0.062214 0.503262
v 2.026253 -1.937786 -0.478743
v 2.026253 0.062214 -0.478743
v 4.027815 -1.937786 -0.103816
v 3.989324 -1.937786 0.285244
v 3.989324 0.062214 0.285244
v 4.027815 0.062214 -0.103816
v 1.987762 1.023472 0.331295
v 2.026253 1.023472 -0.287427
v 3.508179 1.023472 0.193931
v 3.508179 1.023472 -0.051200
v 3.027034 0.062214 -0.291279
v 2.988543 0.062214 0.394253
v 2.988543 -1.937786 0.394253
v 3.027034 -1.937786 -0.291279
v 3.508179 1.023472 -0.039736
v 3.508179 1.023472 0.133035
v 3.807655 -2.980010 -0.103816
v 3.785472 -2.980010 0.285244
v 3.208703 -2.980010 0.394253
v 3.230886 -2.980010 -0.291279
v 3.807655 -2.804549 -0.103816
v 3.785472 -2.804549 0.285244
v 3.208703 -2.804549 0.394253
v 3.230886 -2.804549 -0.291279
v 1.987762 2.320712 0.331295
v 2.026253 2.320712 -0.287427
v 2.988543 2.320712 0.133035
v 3.027034 2.320712 -0.039736
v 1.695729 4.124393 0.217694
v 1.698115 4.124393 -0.167609
v 1.757755 4.124393 0.094229
v 1.760141 4.124393 -0.013362
v 1.695729 6.029087 0.217694
v 1.698114 6.029087 -0.167609
v 1.695728 6.029087 0.217694
v 1.698114 6.029087 -0.167609
v 1.449530 -1.913034 0.335355
v 1.658201 -1.593985 -0.351631
v 1.029009 -0.615750 0.424050
v 1.658201 -2.643908 -0.351631
v 1.029009 -0.615750 -0.424050
v 1.658201 -1.564518 0.351630
v 1.658201 -2.643908 0.351630
v 0.010480 -2.643908 -0.506837
v 0.010480 -1.593985 -0.506837
v 0.010480 -2.643908 0.506837
v 0.010480 -1.564518 0.506837
v -1.629192 -2.944687 -0.351631
v -1.629192 -2.944687 0.351630
v 0.018529 -2.944687 -0.506837
v 0.018529 -2.944687 0.506837
v 1.658201 -2.944687 -0.351631
v 1.658201 -2.944687 0.351630
v 0.010480 -2.944687 -0.506837
v 0.010480 -2.944687 0.506837
vn -0.2291 0.3575 -0.9054
vn -0.2498 -0.0000 0.9683
vn -0.1268 0.1957 0.9724
vn -0.0000 -1.0000 -0.0000
vn -0.2453 -0.0000 -0.9695
vn -0.9951 -0.0000 0.0985
vn -0.1083 0.0229 0.9939
vn -0.1841 -0.0000 -0.9829
vn -0.1083 -0.0000 0.9941
vn -1.0000 -0.0000 -0.0000
vn -0.1604 -0.0000 0.9870
vn 0.8942 0.4476 -0.0000
vn -0.1580 0.1739 0.9720
vn -0.8783 0.4701 0.0869
vn -0.1807 0.1920 -0.9646
vn -0.9376 0.3478 -0.0000
vn 0.8942 -0.4476 -0.0000
vn -0.9995 -0.0000 0.0323
vn -0.9799 -0.1917 0.0559
vn -0.1840 -0.0389 -0.9822
vn 0.9809 -0.1919 -0.0317
vn 0.1857 -0.0000 -0.9826
vn 0.3091 -0.0000 0.9510
vn 0.9984 -0.0000 -0.0569
vn -0.1921 0.1519 0.9695
vn -0.8062 0.5637 0.1796
vn -0.1291 0.0517 0.9903
vn -0.2402 -0.0000 -0.9707
vn -0.1574 -0.0000 -0.9875
vn -0.1168 0.1314 -0.9844
vn -0.9109 0.1900 -0.3663
vn -0.1598 0.0878 0.9832
vn -0.1180 -0.0000 0.9930
vn -0.1178 -0.0000 -0.9930
vn -0.3620 0.9322 -0.0000
vn -0.0000 0.2556 0.9668
vn -1.0000 -0.0000 0.0062
vn -0.0938 -0.0000 0.9956
vn -0.0027 0.9996 -0.0291
vn -0.0938 -0.0000 -0.9956
vn 0.2291 0.3575 -0.9054
vn 0.2498 -0.0000 0.9683
vn 0.1066 0.1751 0.9788
vn 0.2453 -0.0000 -0.9695
vn 0.9951 -0.0000 0.0985
vn 0.1083 0.0229 0.9939
vn 0.1841 -0.0000 -0.9829
vn 0.1083 -0.0000 0.9941
vn 0.1604 -0.0000 0.9870
vn 0.1820 0.1516 -0.9716
vn 0.2348 0.3411 0.9102
vn 0.8783 0.4701 0.0869
vn 0.1807 0.1920 -0.9646
vn 0.9376 0.3478 -0.0000
vn 0.1059 0.2070 0.9726
vn 0.9995 -0.0000 0.0323
vn 0.9739 -0.2057 0.0963
vn 0.1840 -0.0389 -0.9822
vn -0.9769 -0.2064 -0.0549
vn -0.1857 -0.0000 -0.9826
vn -0.3091 -0.0000 0.9510
vn -0.9984 -0.0000 -0.0569
vn 0.1921 0.1519 0.9695
vn 0.8062 0.5637 0.1796
vn 0.1291 0.0517 0.9903
vn 0.1645 0.0610 -0.9845
vn 0.1574 -0.0000 -0.9875
vn 0.1567 0.0938 -0.9832
vn 0.2363 0.1800 -0.9549
vn 0.1598 0.0878 0.9832
vn 0.1180 -0.0000 0.9930
vn 0.1178 -0.0000 -0.9930
vn 0.3613 0.9325 0.0022
vn -0.0000 0.7125 -0.7017
vn -0.0000 0.2520 0.9677
vn 1.0000 -0.0000 0.0062
vn 0.0938 -0.0000 0.9956
vn 1.0000 -0.0000 -0.0000
vn 0.0027 0.9996 -0.0291
vn 0.0938 -0.0000 -0.9956
vn -0.1545 0.1929 -0.9690
vn -0.1066 0.1751 0.9788
vn -0.1856 -0.0363 0.9820
vn -0.1820 0.1516 -0.9716
vn -0.2348 0.3411 0.9102
vn -0.8942 0.4476 -0.0000
vn -0.1624 0.1729 -0.9715
vn -0.9091 0.3641 0.2025
vn -0.1059 0.2070 0.9726
vn -0.9739 -0.2057 0.0963
vn -0.3085 0.0603 -0.9493
vn 0.9769 -0.2064 -0.0549
vn -0.8805 0.1704 0.4423
vn -0.8257 0.5638 0.0183
vn -0.1943 -0.0000 0.9809
vn -0.1645 0.0610 -0.9845
vn -0.1567 0.0938 -0.9832
vn -0.2363 0.1800 -0.9549
vn -0.1170 0.1281 0.9848
vn -0.3613 0.9325 0.0022
vn -0.0000 1.0000 -0.0000
vn -0.0000 0.1893 0.9819
vn -0.0000 -0.0000 -1.0000
vn 0.0039 0.9991 -0.0419
vn 0.1545 0.1929 -0.9690
vn 0.1268 0.1957 0.9724
vn 0.1856 -0.0363 0.9820
vn 0.1580 0.1739 0.9720
vn 0.1624 0.1729 -0.9715
vn 0.9091 0.3641 0.2025
vn -0.8942 -0.4476 -0.0000
vn 0.9799 -0.1917 0.0559
vn 0.3085 0.0603 -0.9493
vn -0.9809 -0.1919 -0.0317
vn 0.8805 0.1704 0.4423
vn 0.8257 0.5638 0.0183
vn 0.1943 -0.0000 0.9809
vn 0.2402 -0.0000 -0.9707
vn 0.1168 0.1314 -0.9844
vn 0.9109 0.1900 -0.3663
vn 0.1170 0.1281 0.9848
vn 0.3620 0.9322 -0.0000
vn 0.9278 -0.0000 -0.3731
vn 0.9619 0.0530 0.2682
vn -0.0000 0.1892 0.9819
vn -0.0039 0.9991 -0.0419
vt 0.625000 0.250000
vt 0.625000 0.375000
vt 0.625000 0.875000
vt 0.375000 1.000000
vt 0.375000 0.875000
vt 0.625000 1.000000
vt 0.250000 0.500000
vt 0.125000 0.750000
vt 0.125000 0.500000
vt 0.375000 0.375000
vt 0.375000 0.250000
vt 0.625000 0.000000
vt 0.375000 0.000000
vt 0.875000 0.750000
vt 0.875000 0.500000
vt 0.750000 0.500000
vt 0.750000 0.750000
vt 0.625000 0.125000
vt 0.375000 0.125000
vt 0.375000 0.500000
vt 0.625000 0.750000
vt 0.375000 0.750000
vt 0.625000 0.500000
vt 0.250000 0.750000
s 0
g off
f 4/1/1 16/2/1 6/2/1
f 8/3/2 1/4/2 7/5/2
f 20/6/3 13/6/3 24/6/3
f 5/7/4 1/8/4 3/9/4
f 4/1/5 5/10/5 3/11/5
g Body
f 11/12/6 9/11/6 10/13/6
f 10/4/7 27/4/7 21/4/7
g off
f 22/11/8 12/1/8 19/1/8
g Body
f 20/6/9 10/4/9 21/4/9
g off
f 24/14/10 18/15/10 17/14/10
f 15/3/11 33/6/11 13/6/11
f 19/1/12 18/1/12 23/1/12
f 2/6/13 15/3/13 13/6/13
g Body
f 11/12/14 18/1/14 12/1/14
g off
f 19/1/15 14/1/15 4/1/15
f 24/14/16 38/15/16 23/15/16
g Body
f 2/6/9 21/4/9 1/4/9
g off
f 3/11/8 19/1/8 4/1/8
g Body
f 3/9/4 21/8/4 22/9/4
f 11/6/17 24/6/17 17/6/17
f 27/8/18 32/9/18 28/9/18
f 10/13/19 25/11/19 26/13/19
g off
f 22/11/20 25/11/20 9/11/20
g Body
f 22/9/21 27/8/21 28/9/21
g off
f 31/8/4 29/9/4 32/9/4
g Body
f 26/4/22 31/4/22 27/4/22
g off
f 28/11/23 29/11/23 25/11/23
g Body
f 25/11/24 30/13/24 26/13/24
f 33/6/25 43/6/25 37/6/25
f 37/14/26 44/15/26 38/15/26
f 13/6/27 37/6/27 24/6/27
g off
f 14/1/28 38/1/28 34/1/28
f 14/1/29 36/2/29 16/2/29
f 36/2/30 40/1/30 42/2/30
f 34/1/31 44/1/31 40/1/31
g Body
f 35/3/32 39/6/32 33/6/32
f 39/6/33 45/3/33 46/6/33
g off
f 40/1/34 48/2/34 42/2/34
g Body
f 52/16/35 50/14/35 49/17/35
g off
f 48/2/34 51/1/34 52/2/34
g Body
f 45/3/36 50/6/36 46/6/36
f 39/6/37 50/6/37 51/1/37
g off
f 63/18/38 59/11/38 62/19/38
g Engine
f 59/20/10 54/21/10 56/22/10
f 54/15/39 63/17/39 61/16/39
g off
f 56/22/10 114/20/10 59/20/10
g Engine
f 54/1/40 60/10/40 56/11/40
g off
f 16/2/41 67/1/41 6/2/41
f 64/4/42 8/3/42 7/5/42
f 77/6/43 72/6/43 65/6/43
f 64/8/4 5/7/4 66/9/4
f 5/10/44 67/1/44 66/11/44
g Body
f 68/11/45 70/12/45 69/13/45
f 84/4/46 69/4/46 78/4/46
g off
f 71/1/47 79/11/47 76/1/47
g Body
f 69/4/48 77/6/48 78/4/48
g off
f 81/14/10 75/15/10 80/15/10
f 90/6/49 15/3/49 72/6/49
f 76/1/50 75/1/50 71/1/50
f 65/6/51 15/3/51 8/3/51
g Body
f 75/1/52 70/12/52 71/1/52
g off
f 73/1/53 76/1/53 67/1/53
f 93/15/54 81/14/54 80/15/54
g Body
f 78/4/48 65/6/48 64/4/48
g off
f 76/1/47 66/11/47 67/1/47
g Body
f 66/9/4 78/8/4 64/8/4
f 70/6/55 81/6/55 77/6/55
f 89/9/56 84/8/56 85/9/56
f 69/13/57 82/11/57 68/11/57
g off
f 82/11/58 79/11/58 68/11/58
g Body
f 79/9/59 84/8/59 78/8/59
g off
f 86/9/4 88/8/4 89/9/4
g Body
f 88/4/60 83/4/60 84/4/60
g off
f 86/11/61 85/11/61 82/11/61
g Body
f 87/13/62 82/11/62 83/13/62
f 96/6/63 90/6/63 92/6/63
f 97/15/64 92/14/64 93/15/64
f 92/6/65 72/6/65 81/6/65
g off
f 73/1/66 93/1/66 80/1/66
f 36/2/67 73/1/67 16/2/67
f 36/2/68 95/1/68 91/1/68
f 91/1/69 97/1/69 93/1/69
g Body
f 94/6/70 35/3/70 90/6/70
f 94/6/71 45/3/71 41/3/71
g off
f 48/2/72 95/1/72 42/2/72
g Body
f 52/16/73 100/14/73 101/15/73
g off
f 48/2/74 101/1/74 99/1/74
g Body
f 100/6/75 45/3/75 98/6/75
f 101/1/76 100/6/76 94/6/76
g off
f 108/11/77 112/18/77 111/19/77
g Engine
f 108/20/78 103/21/78 107/23/78
f 112/17/79 103/15/79 110/16/79
f 109/10/80 103/1/80 105/11/80
g off
f 111/19/77 118/11/77 108/11/77
g Engine
f 60/10/40 113/11/40 56/11/40
g off
f 59/11/38 116/19/38 62/19/38
g Engine
f 108/20/78 117/22/78 105/22/78
g off
f 105/11/80 119/10/80 109/10/80
f 4/1/81 14/1/81 16/2/81
f 8/3/2 2/6/2 1/4/2
f 20/6/82 2/6/82 13/6/82
f 5/7/4 7/24/4 1/8/4
f 4/1/5 6/2/5 5/10/5
g Body
f 11/12/6 12/1/6 9/11/6
f 10/4/83 26/4/83 27/4/83
g off
f 22/11/8 9/11/8 12/1/8
g Body
f 20/6/9 11/6/9 10/4/9
g off
f 24/14/78 23/15/78 18/15/78
f 15/3/11 35/3/11 33/6/11
f 19/1/84 12/1/84 18/1/84
f 2/6/85 8/3/85 15/3/85
g Body
f 11/12/86 17/12/86 18/1/86
g off
f 19/1/87 23/1/87 14/1/87
g Body
f 24/14/88 37/14/88 38/15/88
f 2/6/9 20/6/9 21/4/9
g off
f 3/11/8 22/11/8 19/1/8
g Body
f 3/9/4 1/8/4 21/8/4
f 11/6/89 20/6/89 24/6/89
f 27/8/18 31/8/18 32/9/18
f 10/13/90 9/11/90 25/11/90
g off
f 22/11/91 28/11/91 25/11/91
g Body
f 22/9/92 21/8/92 27/8/92
g off
f 31/8/4 30/8/4 29/9/4
g Body
f 26/4/22 30/4/22 31/4/22
g off
f 28/11/23 32/11/23 29/11/23
f 25/11/24 29/11/24 30/13/24
g Body
f 33/6/93 39/6/93 43/6/93
f 37/14/94 43/14/94 44/15/94
f 13/6/95 33/6/95 37/6/95
g off
f 14/1/96 23/1/96 38/1/96
f 14/1/29 34/1/29 36/2/29
f 36/2/97 34/1/97 40/1/97
f 34/1/98 38/1/98 44/1/98
g Body
f 35/3/99 41/3/99 39/6/99
f 39/6/33 41/3/33 45/3/33
g off
f 40/1/34 47/1/34 48/2/34
g Body
f 52/16/100 51/15/100 50/14/100
g off
f 48/2/74 47/1/74 51/1/74
g Body
f 45/3/33 49/3/33 50/6/33
f 44/15/101 43/6/101 39/6/101
f 40/1/101 44/15/101 39/6/101
f 47/1/37 40/1/37 39/6/37
f 51/1/102 47/1/102 39/6/102
f 39/6/103 46/6/103 50/6/103
g off
f 63/18/38 58/1/38 59/11/38
g Engine
f 59/20/10 58/23/10 54/21/10
f 54/15/104 58/14/104 63/17/104
f 56/22/10 113/22/10 114/20/10
f 54/1/40 61/2/40 60/10/40
g off
f 16/2/105 73/1/105 67/1/105
f 64/4/42 65/6/42 8/3/42
f 77/6/106 81/6/106 72/6/106
f 64/8/4 7/24/4 5/7/4
f 5/10/44 6/2/44 67/1/44
g Body
f 68/11/45 71/1/45 70/12/45
f 84/4/107 83/4/107 69/4/107
g off
f 71/1/47 68/11/47 79/11/47
g Body
f 69/4/48 70/6/48 77/6/48
g off
f 81/14/78 74/14/78 75/15/78
f 90/6/49 35/3/49 15/3/49
f 76/1/86 80/1/86 75/1/86
f 65/6/108 72/6/108 15/3/108
g Body
f 75/1/12 74/12/12 70/12/12
g off
f 73/1/109 80/1/109 76/1/109
g Body
f 93/15/110 92/14/110 81/14/110
f 78/4/48 77/6/48 65/6/48
g off
f 76/1/47 79/11/47 66/11/47
g Body
f 66/9/4 79/9/4 78/8/4
f 70/6/111 74/6/111 81/6/111
f 89/9/56 88/8/56 84/8/56
f 69/13/112 83/13/112 82/11/112
g off
f 82/11/113 85/11/113 79/11/113
g Body
f 79/9/114 85/9/114 84/8/114
g off
f 86/9/4 87/8/4 88/8/4
g Body
f 88/4/60 87/4/60 83/4/60
g off
f 86/11/61 89/11/61 85/11/61
f 87/13/62 86/11/62 82/11/62
g Body
f 96/6/115 94/6/115 90/6/115
f 97/15/116 96/14/116 92/14/116
f 92/6/117 90/6/117 72/6/117
g off
f 73/1/118 91/1/118 93/1/118
f 36/2/67 91/1/67 73/1/67
f 36/2/119 42/2/119 95/1/119
f 91/1/120 95/1/120 97/1/120
g Body
f 94/6/121 41/3/121 35/3/121
f 94/6/71 98/6/71 45/3/71
g off
f 48/2/72 99/1/72 95/1/72
g Body
f 52/16/122 49/17/122 100/14/122
g off
f 48/2/72 52/2/72 101/1/72
g Body
f 100/6/71 49/3/71 45/3/71
f 94/6/101 96/6/101 97/15/101
g off
f 97/15/123 95/1/123 99/1/123
g Body
f 94/6/124 97/15/124 99/1/124
f 94/6/125 99/1/125 101/1/125
f 100/6/103 98/6/103 94/6/103
g off
f 108/11/77 107/1/77 112/18/77
g Engine
f 108/20/78 105/22/78 103/21/78
f 112/17/126 107/14/126 103/15/126
f 109/10/80 110/2/80 103/1/80
g off
f 111/19/77 120/19/77 118/11/77
g Engine
f 60/10/40 115/10/40 113/11/40
g off
f 59/11/38 114/11/38 116/19/38
g Engine
f 108/20/78 118/20/78 117/22/78
f 105/11/80 117/11/80 119/10/80
l 55 57
l 104 106
