# Blender 3.6.5
# www.blender.org
mtllib zweihander_alt.mtl
o Cube
v 5.320671 4.324868 1.000000
v 5.320671 4.324868 -1.000000
v 3.479357 1.051662 1.000000
v 3.479357 1.051662 -1.000000
v 7.159159 6.385526 -0.724355
v 7.159159 1.178135 -0.724355
v 14.723250 6.385526 0.724355
v 14.723250 1.178135 0.724355
v 0.000000 4.324868 -1.000000
v 0.000000 -0.545764 1.000000
v 0.000000 2.295300 -1.000000
v 0.000000 4.324868 1.000000
v 17.535934 8.442277 0.724355
v 9.971842 8.442277 -0.724355
v 18.951483 6.993567 0.724355
v 11.387391 6.993567 -0.724355
v 10.000736 35.688507 0.475418
v 10.000736 35.688507 -0.475418
v 11.416286 31.819141 0.475418
v 11.416286 31.819141 -0.475418
v 5.320671 58.055660 1.000000
v 5.320671 58.055660 -1.000000
v 0.000000 31.225746 1.000000
v 0.000000 31.225746 -1.000000
v 1.903882 74.745979 1.000000
v 1.903882 74.745979 -1.000000
v 0.000000 65.621323 1.000000
v 0.000000 41.589443 -1.000000
v 1.687403 -8.493718 1.000000
v 1.687403 -5.198418 -1.000000
v 0.000000 -5.198418 -1.000000
v 0.000000 -5.198418 1.000000
v 3.940141 -14.716235 2.344370
v 3.940141 -14.716235 -2.344370
v -0.015756 -14.716235 -2.344370
v -0.015756 -14.716235 2.344370
v 0.518979 83.231544 1.000000
v 0.518979 79.936249 -1.000000
v 0.000000 83.231544 1.000000
v 0.000000 83.231544 -1.000000
v 3.940141 -19.628445 2.344370
v 3.940141 -19.628445 -2.344370
v -0.015756 -19.628445 -2.344370
v -0.015756 -19.628445 2.344370
v 3.940141 -18.525299 2.344370
v 3.940141 -18.525299 -2.344370
v -0.015756 -18.525299 -2.344370
v -0.015756 -18.525299 2.344370
v 13.431641 -22.262012 7.269605
v 21.788771 -22.262012 -1.000000
v 19.996817 -31.807394 1.000000
v 19.996817 -28.512093 -1.000000
v 27.722679 -14.356956 1.000000
v 36.079807 -14.356956 -1.000000
v 34.287853 -19.154398 1.000000
v 34.287853 -15.859098 -1.000000
v 13.697723 -1.341043 0.390078
v 22.054852 -25.626242 -0.390078
v 19.272339 3.594607 0.390078
v 27.629467 -20.690592 -0.390078
v 48.874161 -21.644308 -5.518129
v 48.874161 -21.644308 -6.136804
v 48.319843 -23.128334 -5.518129
v 48.319843 -22.108976 -6.136804
v -5.320671 4.324868 1.000000
v -5.320671 4.324868 -1.000000
v -3.479357 1.051662 1.000000
v -3.479357 1.051662 -1.000000
v -7.159159 6.385526 -0.724355
v -7.159159 1.178135 -0.724355
v -14.723250 6.385526 0.724355
v -14.723250 1.178135 0.724355
v -17.535934 8.442277 0.724355
v -9.971842 8.442277 -0.724355
v -18.951483 6.993567 0.724355
v -11.387391 6.993567 -0.724355
v -10.000736 35.688507 0.475418
v -10.000736 35.688507 -0.475418
v -11.416286 31.819141 0.475418
v -11.416286 31.819141 -0.475418
v -5.320671 58.055660 1.000000
v -5.320671 58.055660 -1.000000
v -1.903882 74.745979 1.000000
v -1.903882 74.745979 -1.000000
v -1.687403 -8.493718 1.000000
v -1.687403 -5.198418 -1.000000
v -3.940141 -14.716235 2.344370
v -3.940141 -14.716235 -2.344370
v 0.015756 -14.716235 -2.344370
v 0.015756 -14.716235 2.344370
v -0.518979 83.231544 1.000000
v -0.518979 79.936249 -1.000000
v -3.940141 -19.628445 2.344370
v -3.940141 -19.628445 -2.344370
v 0.015756 -19.628445 -2.344370
v 0.015756 -19.628445 2.344370
v -3.940141 -18.525299 2.344370
v -3.940141 -18.525299 -2.344370
v 0.015756 -18.525299 -2.344370
v 0.015756 -18.525299 2.344370
v -13.431641 -22.262012 7.269605
v -21.788771 -22.262012 -1.000000
v -19.996817 -31.807394 1.000000
v -19.996817 -28.512093 -1.000000
v -27.722679 -14.356956 1.000000
v -36.079807 -14.356956 -1.000000
v -34.287853 -19.154398 1.000000
v -34.287853 -15.859098 -1.000000
v -13.697723 -1.341043 0.390078
v -22.054852 -25.626242 -0.390078
v -19.272339 3.594607 0.390078
v -27.629467 -20.690592 -0.390078
v -48.874161 -21.644308 -5.518129
v -48.874161 -21.644308 -6.136804
v -48.319843 -23.128334 -5.518129
v -48.319843 -22.108976 -6.136804
vn -0.0000 -0.0000 -1.0000
vn 0.0761 -0.0428 -0.9962
vn 0.0100 -0.9986 -0.0520
vn -0.7462 0.6657 -0.0000
vn -0.0000 -0.0000 1.0000
vn 0.0293 -0.0000 0.9996
vn 0.1879 0.0472 -0.9811
vn -0.1822 0.2491 0.9512
vn 0.1864 -0.1355 -0.9731
vn 0.9391 0.3436 -0.0000
vn 0.1017 0.0372 0.9941
vn 0.0102 0.0100 -0.9999
vn -1.0000 0.0011 -0.0000
vn -1.0000 -0.0000 -0.0000
vn 1.0000 -0.0000 -0.0000
vn 0.9797 0.2006 -0.0000
vn -0.0000 0.2112 0.9774
vn -0.5512 -0.4329 -0.7133
vn 0.9378 0.1801 0.2967
vn -1.0000 0.0017 -0.0000
vn -0.0000 0.1399 -0.9902
vn 0.9569 0.1507 -0.2483
vn 0.9539 0.1557 -0.2565
vn -0.0000 -1.0000 -0.0000
vn 0.6157 0.4835 0.6222
vn -0.3997 0.0750 0.9136
vn -0.2240 0.2673 -0.9372
vn 0.2388 0.3006 0.9234
vn 0.4904 -0.2171 0.8440
vn 0.4174 -0.4715 -0.7768
vn -0.0218 0.0246 -0.9995
vn -0.1875 0.3389 0.9220
vn 0.4549 0.1845 -0.8712
vn 0.6161 0.1874 0.7651
vn 0.6424 -0.7664 -0.0000
vn 0.4949 0.8689 -0.0000
vn 0.4147 0.5675 0.7113
vn -0.4779 -0.4558 -0.7509
vn -0.0761 -0.0428 -0.9962
vn -0.0343 -0.9994 -0.0000
vn 0.7462 0.6657 -0.0000
vn -0.0247 -0.0139 0.9996
vn -0.1879 0.0472 -0.9811
vn 0.1822 0.2491 0.9512
vn -0.1864 -0.1355 -0.9731
vn -0.9391 0.3436 -0.0000
vn -0.0149 0.0145 0.9998
vn -0.0102 0.0100 -0.9999
vn 0.1879 -0.0430 0.9812
vn -0.9797 0.2006 -0.0000
vn -0.2627 0.1345 0.9555
vn 0.5512 -0.4329 -0.7133
vn -0.9378 0.1801 0.2967
vn 1.0000 0.0017 -0.0000
vn -0.0000 1.0000 -0.0000
vn -0.9662 0.2578 -0.0000
vn -0.9197 0.3926 -0.0000
vn 0.3997 0.0750 0.9136
vn 0.2240 0.2673 -0.9372
vn -0.2388 0.3006 0.9234
vn -0.4904 -0.2171 0.8440
vn -0.4174 -0.4715 -0.7768
vn 0.0218 0.0246 -0.9995
vn 0.1875 0.3389 0.9220
vn 0.2275 0.2119 -0.9504
vn 0.6862 -0.2193 -0.6935
vn -0.6424 -0.7664 -0.0000
vn -0.2285 -0.1908 0.9547
vn -0.4147 0.5675 0.7113
vn 0.4779 -0.4558 -0.7509
vn 0.1483 -0.0000 -0.9889
vn 0.0343 -0.9994 -0.0000
vn -0.1337 0.7034 0.6981
vn 0.0247 -0.0139 0.9996
vn 1.0000 -0.0012 -0.0000
vn 0.0149 0.0145 0.9998
vn 0.0249 0.0091 -0.9996
vn -0.1879 -0.0430 0.9812
vn 0.2627 0.1345 0.9555
vn 0.9403 0.3404 -0.0000
vn 0.9662 0.2578 -0.0000
vn 0.9197 0.3926 -0.0000
vn -0.7811 -0.6135 0.1160
vn -0.0212 0.0240 0.9995
vn -0.1463 0.1653 0.9753
vn -0.2275 0.2119 -0.9504
vn -0.6862 -0.2193 -0.6935
vn 0.8116 -0.3031 -0.4995
vn 0.2285 -0.1908 0.9547
vn 0.3833 -0.1432 0.9125
vn -0.1483 -0.0000 -0.9889
vn -0.0100 -0.9986 -0.0520
vn 0.1337 0.7034 0.6981
vn -0.0293 -0.0000 0.9996
vn -1.0000 -0.0012 -0.0000
vn -0.1017 0.0372 0.9941
vn -0.0249 0.0091 -0.9996
vn 1.0000 0.0011 -0.0000
vn -0.9403 0.3404 -0.0000
vn -0.9569 0.1507 -0.2483
vn -0.9539 0.1557 -0.2565
vn -0.6157 0.4835 0.6222
vn 0.7811 -0.6135 0.1160
vn 0.0212 0.0240 0.9995
vn 0.1463 0.1653 0.9753
vn -0.4549 0.1845 -0.8712
vn -0.6161 0.1874 0.7651
vn -0.8116 -0.3031 -0.4995
vn -0.4949 0.8689 -0.0000
vn -0.3833 -0.1432 0.9125
vt 0.375000 0.500000
vt 0.375000 0.750000
vt 0.625000 0.750000
vt 0.250000 0.500000
vt 0.250000 0.750000
vt 0.625000 0.500000
vt 0.750000 0.500000
vt 0.000000 0.000000
vt 0.750000 0.750000
vt 0.375000 0.375000
vt 0.375000 0.875000
vt 0.625000 0.375000
vt 0.625000 0.875000
s 0
usemtl Material
f 5/1/1 16/2/1 6/2/1
f 2/1/2 6/2/2 4/2/2
f 3/3/3 6/2/3 8/3/3
f 9/4/1 4/2/1 11/5/1
f 1/6/4 5/1/4 2/1/4
f 1/6/5 23/7/5 12/7/5
f 1/6/6 8/3/6 7/6/6
f 4/2/1 31/5/1 11/5/1
f 12/7/5 3/3/5 1/6/5
f 16/2/7 19/3/7 15/3/7
f 7/6/8 14/1/8 5/1/8
f 8/3/9 16/2/9 15/3/9
f 7/6/5 15/3/5 13/6/5
f 17/6/10 20/2/10 18/1/10
f 13/6/11 19/3/11 17/6/11
f 14/1/12 20/2/12 16/2/12
f 14/1/13 17/6/13 18/1/13
f 23/8/14 28/8/14 24/8/14
f 2/1/15 21/6/15 1/6/15
f 12/8/14 24/8/14 9/8/14
f 2/1/1 24/4/1 22/1/1
f 25/6/5 39/7/5 27/7/5
f 21/6/5 27/7/5 23/7/5
f 22/1/1 28/4/1 26/1/1
f 22/1/16 25/6/16 21/6/16
f 29/3/17 36/9/17 33/3/17
f 29/3/18 52/2/18 51/3/18
f 3/3/5 32/9/5 29/3/5
f 10/8/14 31/8/14 32/8/14
f 36/9/5 41/3/5 33/3/5
f 29/3/19 34/2/19 30/2/19
f 31/8/20 36/8/20 32/8/20
f 30/2/21 35/5/21 31/5/21
f 40/10/22 37/6/22 38/1/22
f 28/4/1 38/1/1 26/1/1
f 25/6/23 38/1/23 37/6/23
f 27/8/14 40/8/14 28/8/14
f 42/2/5 47/5/5 43/5/5
f 33/3/15 42/2/15 34/2/15
f 35/8/14 44/8/14 36/8/14
f 34/2/1 43/5/1 35/5/1
f 45/3/24 47/11/24 46/2/24
f 44/9/1 45/3/1 41/3/1
f 41/3/14 46/2/14 42/2/14
f 43/8/15 48/8/15 44/8/15
f 50/2/1 56/2/1 52/2/1
f 4/2/25 49/3/25 50/2/25
f 29/3/26 49/3/26 3/3/26
f 30/2/1 50/2/1 52/2/1
f 54/2/27 64/2/27 56/2/27
f 53/3/28 57/3/28 49/3/28
f 51/3/29 53/3/29 49/3/29
f 52/2/30 55/3/30 51/3/30
f 57/3/31 60/2/31 58/2/31
f 50/2/32 60/2/32 54/2/32
f 53/3/33 60/2/33 59/3/33
f 50/2/34 57/3/34 58/2/34
f 61/3/35 64/2/35 62/2/35
f 54/2/36 61/3/36 62/2/36
f 55/3/37 61/3/37 53/3/37
f 55/3/38 64/2/38 63/3/38
f 76/2/1 69/1/1 70/2/1
f 70/2/39 66/1/39 68/2/39
f 67/3/40 70/2/40 68/2/40
f 9/4/1 68/2/1 66/1/1
f 69/1/41 65/6/41 66/1/41
f 23/7/5 65/6/5 12/7/5
f 65/6/42 72/3/42 67/3/42
f 31/5/1 68/2/1 11/5/1
f 67/3/5 12/7/5 65/6/5
f 79/3/43 76/2/43 75/3/43
f 74/1/44 71/6/44 69/1/44
f 72/3/45 76/2/45 70/2/45
f 71/6/5 75/3/5 72/3/5
f 80/2/46 77/6/46 78/1/46
f 73/6/47 79/3/47 75/3/47
f 80/2/48 74/1/48 76/2/48
f 74/1/49 77/6/49 73/6/49
f 81/6/14 66/1/14 65/6/14
f 66/1/1 24/4/1 9/4/1
f 39/7/5 83/6/5 27/7/5
f 27/7/5 81/6/5 23/7/5
f 82/1/1 28/4/1 24/4/1
f 83/6/50 82/1/50 81/6/50
f 85/3/51 90/9/51 32/9/51
f 85/3/52 104/2/52 86/2/52
f 67/3/5 32/9/5 10/9/5
f 93/3/5 90/9/5 87/3/5
f 88/2/53 85/3/53 86/2/53
f 90/8/54 31/8/54 32/8/54
f 89/5/21 86/2/21 31/5/21
f 40/10/55 91/6/55 39/12/55
f 92/1/1 28/4/1 84/1/1
f 83/6/56 92/1/56 84/1/56
f 99/5/5 94/2/5 95/5/5
f 94/2/14 87/3/14 88/2/14
f 96/8/15 89/8/15 90/8/15
f 95/5/1 88/2/1 89/5/1
f 99/11/24 97/3/24 98/2/24
f 97/3/1 96/9/1 93/3/1
f 98/2/15 93/3/15 94/2/15
f 100/8/14 95/8/14 96/8/14
f 108/2/1 102/2/1 104/2/1
f 68/2/57 101/3/57 67/3/57
f 101/3/58 85/3/58 67/3/58
f 86/2/1 102/2/1 68/2/1
f 116/2/59 106/2/59 108/2/59
f 109/3/60 105/3/60 101/3/60
f 105/3/61 103/3/61 101/3/61
f 107/3/62 104/2/62 103/3/62
f 112/2/63 109/3/63 110/2/63
f 112/2/64 102/2/64 106/2/64
f 105/3/65 112/2/65 106/2/65
f 102/2/66 109/3/66 101/3/66
f 116/2/67 113/3/67 114/2/67
f 106/2/68 113/3/68 105/3/68
f 113/3/69 107/3/69 105/3/69
f 107/3/70 116/2/70 108/2/70
f 5/1/1 14/1/1 16/2/1
f 2/1/71 5/1/71 6/2/71
f 3/3/72 4/2/72 6/2/72
f 9/4/1 2/1/1 4/2/1
f 1/6/73 7/6/73 5/1/73
f 1/6/5 21/6/5 23/7/5
f 1/6/74 3/3/74 8/3/74
f 4/2/1 30/2/1 31/5/1
f 12/7/5 10/9/5 3/3/5
f 16/2/75 20/2/75 19/3/75
f 7/6/8 13/6/8 14/1/8
f 8/3/9 6/2/9 16/2/9
f 7/6/5 8/3/5 15/3/5
f 17/6/10 19/3/10 20/2/10
f 13/6/76 15/3/76 19/3/76
f 14/1/77 18/1/77 20/2/77
f 14/1/78 13/6/78 17/6/78
f 23/8/14 27/8/14 28/8/14
f 2/1/15 22/1/15 21/6/15
f 12/8/14 23/8/14 24/8/14
f 2/1/1 9/4/1 24/4/1
f 25/6/5 37/6/5 39/7/5
f 21/6/5 25/6/5 27/7/5
f 22/1/1 24/4/1 28/4/1
f 22/1/16 26/1/16 25/6/16
f 29/3/79 32/9/79 36/9/79
f 29/3/18 30/2/18 52/2/18
f 3/3/5 10/9/5 32/9/5
f 10/8/14 11/8/14 31/8/14
f 36/9/5 44/9/5 41/3/5
f 29/3/80 33/3/80 34/2/80
f 31/8/20 35/8/20 36/8/20
f 30/2/21 34/2/21 35/5/21
f 40/10/55 39/12/55 37/6/55
f 28/4/1 40/4/1 38/1/1
f 25/6/81 26/1/81 38/1/81
f 27/8/14 39/8/14 40/8/14
f 42/2/5 46/2/5 47/5/5
f 33/3/15 41/3/15 42/2/15
f 35/8/14 43/8/14 44/8/14
f 34/2/1 42/2/1 43/5/1
f 45/3/24 48/13/24 47/11/24
f 44/9/1 48/9/1 45/3/1
f 41/3/14 45/3/14 46/2/14
f 43/8/15 47/8/15 48/8/15
f 50/2/1 54/2/1 56/2/1
f 4/2/82 3/3/82 49/3/82
f 29/3/83 51/3/83 49/3/83
f 30/2/1 4/2/1 50/2/1
f 54/2/27 62/2/27 64/2/27
f 53/3/84 59/3/84 57/3/84
f 51/3/5 55/3/5 53/3/5
f 52/2/30 56/2/30 55/3/30
f 57/3/31 59/3/31 60/2/31
f 50/2/85 58/2/85 60/2/85
f 53/3/86 54/2/86 60/2/86
f 50/2/87 49/3/87 57/3/87
f 61/3/88 63/3/88 64/2/88
f 54/2/89 53/3/89 61/3/89
f 55/3/90 63/3/90 61/3/90
f 55/3/38 56/2/38 64/2/38
f 76/2/1 74/1/1 69/1/1
f 70/2/91 69/1/91 66/1/91
f 67/3/92 72/3/92 70/2/92
f 9/4/1 11/5/1 68/2/1
f 69/1/93 71/6/93 65/6/93
f 23/7/5 81/6/5 65/6/5
f 65/6/94 71/6/94 72/3/94
f 31/5/1 86/2/1 68/2/1
f 67/3/5 10/9/5 12/7/5
f 79/3/95 80/2/95 76/2/95
f 74/1/44 73/6/44 71/6/44
f 72/3/45 75/3/45 76/2/45
f 71/6/5 73/6/5 75/3/5
f 80/2/46 79/3/46 77/6/46
f 73/6/96 77/6/96 79/3/96
f 80/2/97 78/1/97 74/1/97
f 74/1/98 78/1/98 77/6/98
f 81/6/14 82/1/14 66/1/14
f 66/1/1 82/1/1 24/4/1
f 39/7/5 91/6/5 83/6/5
f 27/7/5 83/6/5 81/6/5
f 82/1/1 84/1/1 28/4/1
f 83/6/50 84/1/50 82/1/50
f 85/3/17 87/3/17 90/9/17
f 85/3/52 103/3/52 104/2/52
f 67/3/5 85/3/5 32/9/5
f 93/3/5 96/9/5 90/9/5
f 88/2/99 87/3/99 85/3/99
f 90/8/54 89/8/54 31/8/54
f 89/5/21 88/2/21 86/2/21
f 40/10/100 92/1/100 91/6/100
f 92/1/1 40/4/1 28/4/1
f 83/6/101 91/6/101 92/1/101
f 99/5/5 98/2/5 94/2/5
f 94/2/14 93/3/14 87/3/14
f 96/8/15 95/8/15 89/8/15
f 95/5/1 94/2/1 88/2/1
f 99/11/24 100/13/24 97/3/24
f 97/3/1 100/9/1 96/9/1
f 98/2/15 97/3/15 93/3/15
f 100/8/14 99/8/14 95/8/14
f 108/2/1 106/2/1 102/2/1
f 68/2/102 102/2/102 101/3/102
f 101/3/103 103/3/103 85/3/103
f 86/2/1 104/2/1 102/2/1
f 116/2/59 114/2/59 106/2/59
f 109/3/104 111/3/104 105/3/104
f 105/3/5 107/3/5 103/3/5
f 107/3/62 108/2/62 104/2/62
f 112/2/63 111/3/63 109/3/63
f 112/2/105 110/2/105 102/2/105
f 105/3/106 111/3/106 112/2/106
f 102/2/107 110/2/107 109/3/107
f 116/2/108 115/3/108 113/3/108
f 106/2/109 114/2/109 113/3/109
f 113/3/110 115/3/110 107/3/110
f 107/3/70 115/3/70 116/2/70
